Coordinates
version=1
nRows=15
nColumns=34
inDegrees=no

Units are S.I. units (second, meters, Newtons, ...)
If the header above contains a line with 'inDegrees', this indicates whether rotational values are in degrees (yes) or radians (no).

endheader
time	pelvis_tilt	pelvis_list	pelvis_rotation	pelvis_tx	pelvis_ty	pelvis_tz	hip_flexion_r	hip_adduction_r	hip_rotation_r	knee_angle_r	ankle_angle_r	subtalar_angle_r	mtp_angle_r	hip_flexion_l	hip_adduction_l	hip_rotation_l	knee_angle_l	ankle_angle_l	subtalar_angle_l	mtp_angle_l	lumbar_extension	lumbar_bending	lumbar_rotation	arm_flex_r	arm_add_r	arm_rot_r	elbow_flex_r	pro_sup_r	arm_flex_l	arm_add_l	arm_rot_l	elbow_flex_l	pro_sup_l
6.5	-0.276554	-0.00543336	-0.106661	-0.356418	0.581608	-0.671096	1.71135	-0.23395	0.11405	2.04998	0.712914	0.115911	-0.0323824	1.70077	-0.255851	0.117307	2.12905	0.776598	0.0557511	-0.0323314	-0.619177	-0.00583303	0.0426005	1.23255	-0.343827	-0.0272739	1.78054	1.78021	1.19098	-0.365106	-0.042458	1.91098	1.76037
6.51	-0.277275	-0.00542914	-0.106393	-0.356269	0.584612	-0.671141	1.70532	-0.233141	0.111916	2.04258	0.711615	0.113311	-0.0323824	1.69509	-0.254754	0.114818	2.12164	0.774881	0.0531346	-0.0323314	-0.616794	-0.00592329	0.0422662	1.23018	-0.34477	-0.0259413	1.7803	1.77963	1.19008	-0.364866	-0.0413302	1.91005	1.76219
6.52	-0.278054	-0.00540293	-0.106139	-0.356115	0.587903	-0.671184	1.69876	-0.232221	0.109607	2.03445	0.710106	0.11047	-0.0323824	1.68887	-0.253657	0.112098	2.11348	0.772988	0.050388	-0.0323314	-0.61428	-0.00602913	0.042001	1.2275	-0.345869	-0.024572	1.78011	1.77917	1.18887	-0.364592	-0.0401474	1.90901	1.7636
6.53	-0.278868	-0.00536408	-0.10591	-0.355952	0.591473	-0.671226	1.69167	-0.231193	0.10712	2.02561	0.708387	0.107394	-0.0323824	1.6821	-0.25258	0.109179	2.10459	0.770921	0.047544	-0.0323314	-0.611653	-0.00614648	0.0418309	1.22451	-0.347102	-0.0231955	1.77996	1.77883	1.18736	-0.364287	-0.0388754	1.9078	1.76434
6.54	-0.279699	-0.00531498	-0.105702	-0.355776	0.595313	-0.671265	1.68406	-0.23007	0.104466	2.01608	0.706463	0.104092	-0.0323824	1.6748	-0.251527	0.106086	2.09499	0.768684	0.0446259	-0.0323314	-0.608914	-0.00627128	0.0417599	1.22119	-0.348425	-0.0218482	1.77981	1.77863	1.18556	-0.363966	-0.0374905	1.90637	1.76424
6.55	-0.280532	-0.00525183	-0.105502	-0.355581	0.599413	-0.671302	1.67593	-0.228875	0.101668	2.00592	0.70435	0.100579	-0.0323824	1.66698	-0.25049	0.102836	2.08473	0.766284	0.0416535	-0.0323314	-0.606048	-0.0063986	0.0417675	1.21753	-0.349776	-0.020566	1.7796	1.77856	1.18345	-0.363652	-0.0359787	1.90467	1.76316
6.56	-0.281363	-0.005166	-0.105282	-0.355359	0.603759	-0.67134	1.66732	-0.227642	0.0987567	1.99515	0.702062	0.0968849	-0.0323824	1.65866	-0.249446	0.0994373	2.07383	0.763728	0.0386442	-0.0323314	-0.603026	-0.00652262	0.0418149	1.21349	-0.351092	-0.0193759	1.77927	1.77858	1.18099	-0.363372	-0.034338	1.90264	1.76109
6.57	-0.28219	-0.00504528	-0.105012	-0.355104	0.608339	-0.671378	1.65825	-0.226413	0.09577	1.98382	0.699618	0.0930477	-0.0323824	1.64986	-0.248366	0.0958887	2.06233	0.761024	0.0356123	-0.0323314	-0.599807	-0.00663929	0.0418575	1.20903	-0.352319	-0.0182934	1.77874	1.77867	1.17816	-0.363127	-0.0325841	1.90021	1.75819
6.58	-0.283016	-0.00487482	-0.104656	-0.354808	0.613139	-0.67142	1.64875	-0.225231	0.0927486	1.97195	0.697034	0.0891102	-0.0323824	1.6406	-0.247219	0.0921823	2.05024	0.758179	0.0325715	-0.0323314	-0.596351	-0.00674943	0.0418553	1.2041	-0.353432	-0.0173193	1.77794	1.77877	1.17492	-0.36288	-0.030754	1.8973	1.7548
6.59	-0.283841	-0.0046391	-0.104184	-0.354465	0.618148	-0.671467	1.63885	-0.224131	0.089734	1.95958	0.694325	0.0851099	-0.0323824	1.63091	-0.245983	0.0883026	2.0376	0.755199	0.02954	-0.0323314	-0.59262	-0.00685884	0.0417753	1.19863	-0.354429	-0.0164353	1.7768	1.77881	1.17125	-0.362564	-0.0289046	1.89381	1.7514
6.6	-0.284663	-0.00432624	-0.103574	-0.354068	0.623357	-0.671519	1.62856	-0.223133	0.0867618	1.94673	0.691507	0.0810722	-0.0323825	1.62079	-0.244653	0.0842316	2.02442	0.752092	0.0265463	-0.0323314	-0.588592	-0.00697439	0.0415937	1.19257	-0.355325	-0.0156042	1.77526	1.77875	1.16712	-0.362109	-0.0271015	1.88964	1.74855
6.61	-0.28547	-0.0039334	-0.102816	-0.353612	0.628761	-0.671574	1.61788	-0.22224	0.0838546	1.93341	0.688593	0.0770056	-0.0323825	1.61024	-0.243242	0.0799568	2.0107	0.748867	0.0236288	-0.0323313	-0.584264	-0.00709997	0.0413	1.18589	-0.356141	-0.0147797	1.77326	1.77857	1.1625	-0.361453	-0.0253987	1.88471	1.7466
6.62	-0.286242	-0.00346802	-0.101913	-0.353092	0.634356	-0.671633	1.60679	-0.221437	0.0810177	1.91961	0.685592	0.0729044	-0.0323825	1.59924	-0.241779	0.0754742	1.99645	0.745532	0.0208299	-0.0323313	-0.579654	-0.00723601	0.0409003	1.17855	-0.356896	-0.013922	1.77073	1.77829	1.15735	-0.360553	-0.023831	1.87897	1.74581
6.63	-0.286949	-0.00294501	-0.100877	-0.352504	0.640142	-0.671691	1.59525	-0.220708	0.078241	1.90533	0.682508	0.0687549	-0.0323825	1.58777	-0.240303	0.0707888	1.98168	0.742097	0.0181907	-0.0323313	-0.574803	-0.00738141	0.040415	1.17053	-0.357605	-0.0130097	1.76763	1.77799	1.15165	-0.359386	-0.0224053	1.87238	1.74631
6.64	-0.287553	-0.00238346	-0.0997278	-0.351845	0.646122	-0.671747	1.58321	-0.220033	0.0755018	1.89057	0.679335	0.0645424	-0.0323825	1.5758	-0.23885	0.0659133	1.96637	0.738572	0.015747	-0.0323313	-0.569762	-0.00753499	0.0398746	1.16184	-0.358274	-0.0120444	1.76391	1.77777	1.14537	-0.357952	-0.0210939	1.86491	1.74812
